<?xml version="1.0" encoding="UTF-8"?>
<svg id="Layer_1" data-name="Layer 1" xmlns="http://www.w3.org/2000/svg" viewBox="0 0 232.06 94.66">
  <defs>
    <style>
      .cls-1 {
        fill: #72bf44;
      }

      .cls-2 {
        fill: #606161;
      }
    </style>
  </defs>
  <path class="cls-2" d="M12.88,57.88l-.02-23.3H4.84c-2.64,.35-4.03,2.39-4.15,6.14H0v-7.6H31.03l.11,3.8,.16,3.8h-.66c-.69-2.37-1.5-3.97-2.44-4.8-.94-.83-2.04-1.28-3.29-1.34h-6.46l-.02,23.3c0,1.59,.37,2.7,1.1,3.35,.73,.65,2.09,1,4.06,1.05v.31H7.79v-.31c1.92,0,3.25-.34,3.99-1.01,.73-.68,1.1-1.81,1.1-3.39Z"/>
  <path class="cls-2" d="M57.27,54.89c0,2.78-.88,4.85-2.65,6.23-1.76,1.38-4.44,2.06-8.03,2.06s-6.3-.67-8.04-2.02c-1.74-1.35-2.62-3.44-2.64-6.27v-10.35c.08-1.19-.29-2.02-1.09-2.51-.8-.49-1.72-.73-2.74-.71v-.23h12.21v.31c-1.28-.1-2.28,.1-3,.63-.72,.52-1.08,1.36-1.08,2.52v10.72c0,2.26,.55,4.04,1.65,5.35,1.1,1.31,2.68,2.01,4.73,2.09,2.05,.08,4.04-.59,5.95-2.02,1.91-1.43,2.86-3.24,2.86-5.42v-9.45c0-1.68-.41-2.85-1.23-3.51-.82-.66-1.77-.99-2.85-.99v-.23h9.88v.23c-1.13-.05-2.07,.26-2.82,.95-.75,.68-1.12,1.87-1.12,3.55v9.08Z"/>
  <path class="cls-2" d="M82.57,59.23c1.88-1.55,2.82-3.88,2.82-6.98,0-3.47-.94-5.9-2.82-7.3-1.88-1.4-4.21-2.09-6.99-2.09s-5.05,.7-6.79,2.09c-1.75,1.4-2.62,3.83-2.62,7.3,0,3.06,.87,5.38,2.62,6.95,1.75,1.57,4.01,2.36,6.79,2.36s5.11-.78,6.99-2.33h0Zm-16.84,.42c-2.57-2.01-3.85-4.6-3.85-7.76s1.28-5.72,3.85-7.75c2.57-2.02,5.85-3.03,9.85-3.03s7.31,1.01,9.88,3.03c2.57,2.02,3.85,4.6,3.85,7.75s-1.28,5.74-3.85,7.76c-2.57,2.01-5.86,3.02-9.88,3.02s-7.29-1.01-9.85-3.02Z"/>
  <path class="cls-2" d="M112.89,41.14h9.76v.27c-1.07,.04-1.96,.37-2.68,1-.72,.63-1.08,1.77-1.08,3.42v17.18h-.78l-22.73-18.02v12.95c0,1.67,.36,2.84,1.08,3.51,.72,.67,1.69,.99,2.91,.95v.27h-9.99v-.27c1.63-.08,2.68-.42,3.14-1.03,.46-.61,.66-1.75,.62-3.43v-14.57c-.09-.77-.52-1.28-1.29-1.54-.77-.25-1.59-.39-2.46-.4v-.29h7.22c.34,0,.6,.09,.8,.25l.32,.23,9.14,7.26,9.79,7.77v-10.82c.03-1.67-.29-2.82-.97-3.46-.68-.64-1.61-.96-2.78-.98v-.25Z"/>
  <path class="cls-2" d="M145.41,55.97c-.02-1.19-.34-1.99-.96-2.41-.66-.43-1.6-.61-2.84-.53v-.22h11.11v.23c-1.04-.04-1.82,.14-2.34,.55-.41,.33-.64,.93-.69,1.82v5.14c-3.56,1.37-7.17,2.06-10.84,2.07-4.81,0-8.64-.97-11.49-2.91-2.85-1.94-4.27-4.55-4.27-7.82s1.4-5.72,4.21-7.74c2.8-2.02,6.37-3.02,10.71-3.02,2.11,0,4.45,.31,7.04,.92,.73,.17,1.43,.2,2.1,.09,.66-.11,1.16-.22,1.48-.34h.66v5.95h-.48c-.72-1.89-1.99-3.26-3.82-4.11-1.83-.85-3.91-1.27-6.24-1.27-3.3,0-5.89,.85-7.78,2.54-1.89,1.7-2.83,4.03-2.83,7s1,5.27,3,6.96c2,1.7,4.75,2.54,8.25,2.54,1.79-.01,3.42-.25,4.9-.7,.41-.13,.7-.29,.87-.49,.17-.2,.25-.47,.25-.82v-3.44Z"/>
  <path class="cls-2" d="M172.02,51.6l12.35,.02-6.21-13.47-6.14,13.44h0Zm-5.09,6.28l6.12-12.61,3.05-6.3,1.88-4.53c.12-.46,0-.82-.38-1.1-.37-.27-.71-.39-1-.37v-.31h5.36v.31c-.35-.11-.66,0-.93,.34-.27,.34-.19,.91,.24,1.7l.44,.79,1.58,3.15,3.14,6.3,6.3,12.63c1.53,3.13,3.09,4.59,4.68,4.38v.31h-13.09v-.31c1.8,.01,2.95-.32,3.44-1,.49-.68,.34-1.81-.44-3.38l-2.36-4.89h-13.54l-1.58,3.34c-1.1,2.24-1.54,3.8-1.33,4.67,.21,.87,1.5,1.29,3.87,1.26v.31h-10.27v-.31c1.41-.12,2.34-.45,2.81-.98,.47-.53,1.13-1.67,2.01-3.42Z"/>
  <path class="cls-2" d="M222.3,41.14h9.76v.27c-1.07,.04-1.96,.37-2.68,1-.72,.63-1.08,1.77-1.08,3.42v17.18h-.78l-22.73-18.02v12.95c0,1.67,.36,2.84,1.08,3.51,.72,.67,1.69,.99,2.91,.95v.27h-9.99v-.27c1.63-.08,2.68-.42,3.14-1.03,.46-.61,.66-1.75,.62-3.43v-14.57c-.09-.77-.52-1.28-1.29-1.54-.77-.25-1.59-.39-2.46-.4v-.29h7.22c.34,0,.6,.09,.8,.25l.32,.23,9.14,7.26,9.79,7.77v-10.82c.03-1.67-.29-2.82-.97-3.46-.68-.64-1.61-.96-2.78-.98v-.25Z"/>
  <path class="cls-2" d="M57.12,44.47v-.53c.97-.27,1.73-.7,2.26-1.28,.53-.58,.8-1.19,.8-1.84,0-.15-.04-.28-.13-.39-.07-.07-.13-.11-.2-.11-.1,0-.33,.08-.68,.24-.17,.07-.35,.11-.54,.11-.46,0-.83-.12-1.11-.35-.27-.23-.41-.56-.41-.97s.18-.73,.53-1.02c.35-.28,.79-.42,1.3-.42,.62,0,1.18,.23,1.67,.7,.49,.46,.73,1.08,.73,1.85,0,.83-.34,1.61-1.01,2.32-.68,.71-1.75,1.28-3.21,1.69Z"/>
  <path class="cls-2" d="M84.25,44.47v-.53c.97-.27,1.73-.7,2.26-1.28,.53-.58,.8-1.19,.8-1.84,0-.15-.04-.28-.13-.39-.07-.07-.13-.11-.2-.11-.1,0-.33,.08-.68,.24-.17,.07-.35,.11-.54,.11-.46,0-.83-.12-1.11-.35-.27-.23-.41-.56-.41-.97s.18-.73,.53-1.02c.35-.28,.79-.42,1.3-.42,.62,0,1.18,.23,1.67,.7,.49,.46,.73,1.08,.73,1.85,0,.83-.34,1.61-1.01,2.32-.68,.71-1.75,1.28-3.21,1.69Z"/>
  <polygon class="cls-2" points="75.29 33.12 79.3 33.12 81.21 38.77 80.58 38.77 75.29 33.12"/>
  <path class="cls-1" d="M142.45,75.13c5.97,3.56,9.75,2.9,15.08,4.34,5.33,1.44,9.62,4.16,11,7.7,.75,1.93,.14,3.99-.57,5.46-.25-.87-.74-2.2-1.62-3.34-.01-.01-.02-.03-.03-.05,.31-.81,.91-3.03-.52-5.3,.29,1.32,.54,2.01-.15,4.47-.84-.94-1.83-1.78-2.88-2.52,.24-1.16,.16-3.2-.88-4.47,.37,1.23,.24,3.17,.17,4-1.25-.81-2.57-1.5-3.83-2.08-.3-.79-1.26-3.05-2.78-3.94,.54,.73,1.64,2.32,1.69,3.46-2.06-.87-3.84-1.43-4.7-1.75-.15-.05-.29-.11-.43-.16-.26-.55-.89-1.77-1.68-2.29,.45,.64,.73,1.35,.72,1.91-1.57-.66-3.21-1.54-7.07-3.85,.74,1,3.98,2.78,6.38,3.93-1.26-.09-4.79-.38-5.95-.77,1.61,.56,3.93,.93,6.82,1.18,.55,.25,1.02,.44,1.35,.56,.81,.29,2.39,.8,4.19,1.59-1.47,.1-5.53,.24-9.99-.7,3.82,1.01,7.6,1.45,11.34,1.33,1.17,.58,2.38,1.27,3.5,2.09-3.33,.03-8.66-.35-11.96-.85,3.98,1.29,10.48,1.38,12.51,1.26,.35,.28,.7,.58,1.02,.88,.6,.57,1.1,1.16,1.51,1.74-.39,.02-3.99,.17-8.81-1.16,2.53,.96,6.42,1.6,9.31,1.92,1.54,2.59,1.56,4.94,1.56,4.94-.56-1.54-3.48-3.83-7.35-5.22-3.87-1.39-10.78-2.98-13.92-6.36-3.14-3.38-3.01-7.95-3.01-7.95Z"/>
  <path class="cls-1" d="M182.53,77.12c.23,0,.39,.06,.47,.17,.08,.11,.16,.56,.22,1.33,.05,.63,.08,1.07,.08,1.31,0,.09-.06,.15-.18,.17-.31,0-.48-.06-.51-.17-.23-.86-.62-1.43-1.16-1.7-.61-.3-1.78-.45-3.49-.45-.19,0-.68,.03-1.47,.08v5.66c1.31,.03,2.13-.04,2.46-.19,.7-.3,1.08-.97,1.17-1.99,.01-.11,.07-.18,.18-.19,.37,0,.55,.04,.55,.13,0,.11-.01,.53-.04,1.26-.03,.73-.04,1.16-.04,1.32l.04,2.33c0,.11-.05,.18-.16,.19-.35,0-.54-.06-.55-.19-.01-.13-.06-.35-.14-.68-.22-.63-.6-1.03-1.16-1.21-.38-.13-1.15-.19-2.3-.19v3.47c0,.83,.1,1.38,.31,1.65,.24,.33,.77,.51,1.57,.55,.35,.01,.54,.07,.57,.17,0,.38-.07,.57-.2,.57-1.26-.04-2.34-.06-3.22-.06-.14,0-.63,0-1.49,.03s-1.36,.03-1.53,.03c-.09,0-.15-.05-.16-.15,0-.25,.01-.41,.03-.46,.02-.06,.08-.08,.19-.08,.91,0,1.47-.24,1.69-.72,.16-.35,.25-1.46,.26-3.33v-3.48c0-1.55-.03-2.55-.08-2.99-.07-.59-.24-.98-.51-1.15-.19-.13-.64-.23-1.36-.3-.09,0-.15-.03-.17-.09-.02-.06-.03-.21-.03-.46,0-.1,.05-.15,.16-.15h.02c.83,.03,2.6,.03,5.32,0h4.68Z"/>
  <path class="cls-1" d="M187.01,77.14l-.04,1.1c-.04,1.1-.06,4.01-.06,8.75,0,1.31,.05,2.08,.14,2.29,.07,.16,.18,.28,.33,.34,.11,.06,.41,.15,.9,.27,.11,.03,.17,.08,.18,.17,0,.29-.05,.44-.14,.44-.98-.05-1.66-.08-2.04-.08-.3,0-1.09,.03-2.36,.08-.11,0-.16-.15-.16-.45,0-.08,.13-.14,.39-.19,.58-.13,.93-.32,1.03-.58,.1-.26,.15-1.08,.15-2.47v-5.25c0-1.16-.01-1.97-.04-2.42-.03-.52-.1-.82-.22-.91-.12-.09-.5-.13-1.12-.13-.09,0-.14-.04-.14-.13v-.3c.01-.09,.09-.14,.22-.15,.27-.02,.88-.13,1.83-.32,.79-.14,1.13-.21,1.02-.21,.09,0,.14,.06,.14,.17Z"/>
  <path class="cls-1" d="M194.3,82.56c-.79,.04-1.43,.37-1.93,1-.54,.69-.81,1.62-.81,2.8,0,1.25,.31,2.22,.92,2.91,.52,.59,1.15,.89,1.89,.89,.8,0,1.46-.31,1.98-.94,.58-.69,.88-1.64,.88-2.85s-.27-2.11-.82-2.8c-.55-.7-1.25-1.03-2.09-.99h0Zm-.16-.53c.96-.05,1.85,.14,2.67,.57,.68,.37,1.22,.89,1.62,1.58,.4,.69,.6,1.4,.6,2.14,0,1.78-.71,3.03-2.12,3.76-.79,.42-1.62,.62-2.5,.62-1.47,0-2.63-.45-3.5-1.34-.79-.81-1.18-1.81-1.18-3.02s.43-2.24,1.28-3.04c.81-.77,1.86-1.19,3.14-1.27Z"/>
  <path class="cls-1" d="M202.1,85.16c-.35-1.02-.6-1.64-.75-1.84-.19-.23-.53-.36-1.02-.4-.12-.01-.19-.07-.2-.17,0-.29,.06-.44,.18-.44h4.03c.11,0,.18,.05,.22,.15,0,.28-.07,.42-.2,.44-.69,.04-1.04,.26-1.04,.66,0,.2,.13,.69,.39,1.46,.31,.92,.68,2.02,1.1,3.3,.38-.83,.95-2.04,1.71-3.62,.16-.34,.41-.9,.73-1.67,.16-.47,.29-.75,.37-.85,.08-.1,.22-.15,.43-.15,.12,0,.22,.03,.31,.09,.12,.27,.26,.57,.41,.91,.62,1.48,1.35,3.24,2.18,5.28,.23-.67,.69-1.84,1.38-3.52,.24-.59,.37-1,.37-1.23,0-.38-.27-.59-.81-.64-.14,0-.21-.05-.22-.15,0-.21,0-.34,.03-.39,.02-.04,.08-.07,.17-.07h2.83c.14,0,.2,.07,.2,.21,0,.25-.07,.39-.2,.42-.54,.1-.93,.37-1.16,.81-.15,.28-.52,1.15-1.12,2.61-.65,1.6-1.11,2.79-1.36,3.56-.14,.39-.23,.63-.27,.71-.05,.08-.15,.12-.3,.12-.18,0-.29-.09-.35-.28l-2.63-6.27s-.6,1.28-1.81,3.82c-.23,.47-.56,1.17-.98,2.11-.18,.42-.35,.63-.53,.63-.15,0-.25-.04-.3-.12-.05-.08-.12-.31-.21-.69-.18-.7-.7-2.29-1.57-4.78Z"/>
  <path class="cls-1" d="M217.88,84.58h1.98c.69,0,1.36-.03,2.02-.08,0-.8-.26-1.32-.79-1.57-.23-.11-.52-.17-.86-.17-.6,0-1.12,.21-1.57,.63-.35,.33-.61,.73-.77,1.19h0Zm5.5,.49v.02c-1.59,0-3.48,.01-5.66,.04-.04,.3-.06,.58-.06,.83,0,1.07,.31,1.94,.92,2.62,.61,.68,1.34,1.02,2.2,1.02,.92,0,1.79-.35,2.59-1.04,.08-.14,.16-.21,.24-.21,.04,0,.1,.04,.18,.11,.08,.08,.12,.13,.12,.15,0,.08-.14,.27-.43,.58-.35,.4-.77,.73-1.26,.98-.65,.35-1.36,.53-2.14,.53-1.18,0-2.15-.36-2.91-1.08-.81-.76-1.22-1.75-1.22-2.99,0-1.42,.44-2.56,1.32-3.4,.8-.77,1.79-1.15,2.95-1.15,1.03,0,1.86,.27,2.48,.81,.53,.47,.79,.98,.79,1.53,0,.2-.04,.42-.12,.64Z"/>
  <path class="cls-1" d="M225.48,83.28h-.45c-.11,0-.17-.04-.18-.13,0-.27,.05-.41,.14-.44,.46-.05,.8-.11,1.02-.17l1.41-.36c.2,0,.45,.58,.73,1.74,.76-1.16,1.62-1.74,2.59-1.74,.88,0,1.32,.32,1.32,.95,0,.57-.22,.85-.65,.85-.29,0-.47-.1-.55-.29-.16-.36-.43-.54-.81-.54-.33,0-.64,.13-.94,.4-.34,.28-.57,.66-.7,1.15-.13,.49-.19,1.85-.19,4.09,0,.41,.06,.67,.18,.77,.15,.14,.55,.23,1.2,.28,.12,.01,.19,.07,.2,.17,0,.34-.05,.5-.16,.49-.83-.05-1.61-.08-2.34-.08-.23,0-.58,.01-1.05,.04-.47,.03-.82,.04-1.05,.04-.12,0-.18-.16-.18-.49,.01-.08,.03-.12,.05-.13,.02-.01,.07-.03,.15-.04,.57-.06,.93-.14,1.09-.23,.16-.09,.25-.26,.27-.51,.03-.25,.04-1.19,.04-2.8,0-1.29-.05-2.09-.14-2.4-.14-.43-.47-.63-1-.61Z"/>
  <path class="cls-1" d="M167.88,39.25h0s0,0,0,0h0Zm-1.1-25.86c-.34-.02-.75-.04-1.23,.03-.47,.06-1,.19-1.56,.4-.55,.21-1.13,.53-1.69,.93-.56,.42-1.11,.92-1.56,1.61-.22,.34-.41,.73-.53,1.15-.12,.42-.16,.88-.11,1.33,.04,.45,.16,.88,.33,1.28,.08,.2,.18,.39,.28,.58l.13,.25c.04,.08,.08,.16,.11,.24,.15,.32,.26,.65,.24,.92,0,.18-.07,.35-.18,.53-.03-.06-.06-.12-.09-.18-.18-.37-.38-.77-.53-1.2-.15-.43-.27-.91-.37-1.4-.1-.49-.15-1.01-.16-1.53-.01-.52,.03-1.04,.16-1.53,.06-.25,.13-.49,.23-.71,.05-.12,.09-.21,.16-.32,.03-.05,.08-.13,.1-.16l.1-.15c.28-.4,.62-.76,.98-1.06,.37-.3,.77-.55,1.16-.77,.39-.21,.78-.39,1.15-.54,.73-.29,1.37-.49,1.82-.61,.25-.07,.44-.12,.56-.14,.22,.35,.48,.69,.75,1.03,.02,.03,.05,.06,.08,.09-.1-.02-.22-.03-.34-.04h0Zm6.75,25.34c-.18,.11-.38,.23-.61,.37-.46,.27-1.02,.58-1.68,.89-.33,.15-.69,.31-1.07,.45-.19,.08-.38,.13-.58,.21-.1,.03-.21,.06-.32,.09-.09,.02-.19,.04-.28,.05-.09,0-.18,0-.24-.02-.07-.02-.1-.05-.13-.09-.06-.09-.08-.31-.08-.54,0-.24,.03-.49,.02-.81,0-.08-.02-.17-.05-.27,0-.04-.05-.13-.08-.18l-.03-.04s-.04-.06-.03-.04l-.02-.02-.04-.04c-.21-.19-.41-.2-.57-.21-.32-.01-.59,.04-.85,.08,0,0-.01,0-.02,0,.08-.25,.11-.53,.02-.85-.06-.22-.22-.45-.43-.57-.1-.07-.21-.11-.31-.13-.09-.03-.26-.03-.3-.03h-.19c-.05,0-.1,0-.15-.01-.09-.02-.17-.05-.22-.1-.05-.04-.07-.08-.08-.12,0-.02,0-.05,0-.08,0-.02,0-.03,0-.04,0-.01,0-.01,.02-.06l.08-.22c.03-.09,.05-.19,.07-.3,.03-.21,.03-.51-.15-.78-.18-.27-.46-.37-.66-.41-.1-.02-.2-.02-.31-.02-.05,0-.08,0-.12,0h-.11c-.11,.01-.22,0-.3-.02,.02-.03,.05-.07,.09-.11l.06-.06,.08-.07c.24-.22,.48-.46,.69-.76,.22-.3,.37-.69,.43-1.04,.07-.35,.1-.68,.12-1.01,.02-.32,.05-.62,.06-.98,.01-.68-.07-1.35-.2-1.98-.27-1.26-.66-2.43-1-3.56-.09-.29-.16-.54-.22-.81-.05-.27-.09-.54-.11-.81-.03-.54,0-1.08,.06-1.6,.14-1.04,.43-2.01,.77-2.87,.69-1.73,1.57-3.02,2.24-3.86,.34-.42,.63-.73,.83-.94,.1-.1,.17-.17,.23-.22l.31,.23,.32,.23c.11,.07,.23,.12,.34,.19,.23,.12,.46,.25,.71,.32,.23,.08,.46,.17,.7,.2-.33,.06-.66,.14-.99,.26-.5,.17-1,.45-1.44,.81-.45,.36-.79,.88-1.02,1.41-.09,.28-.2,.55-.23,.83-.02,.14-.04,.28-.06,.42,0,.14,0,.27,0,.41,0,.28,0,.5,.01,.74,.02,.24,.02,.46,.01,.67,0,.43-.04,.84-.11,1.2-.07,.36-.18,.68-.32,.93-.14,.25-.33,.43-.51,.54-.18,.11-.34,.15-.46,.18-.11,.02-.18,.02-.18,.02,0,0,.06,.02,.18,.03,.12,0,.3,.02,.53-.05,.22-.07,.49-.22,.71-.49,.22-.26,.42-.61,.55-1,.13-.4,.24-.84,.28-1.31,.03-.24,.05-.49,.06-.72,0-.12,.01-.24,.01-.36,0-.14,.02-.23,.02-.35,0-.11,.02-.23,.02-.34,.02-.11,.05-.22,.07-.33,.03-.23,.13-.42,.2-.64,.2-.39,.44-.77,.79-1.05,.34-.28,.73-.53,1.16-.68,.43-.16,.87-.3,1.31-.37,.44-.08,.88-.14,1.29-.17,.2-.02,.42-.02,.62-.03,.21-.02,.41-.04,.61-.05,.39-.06,.73-.13,1.03-.23,.15-.04,.29-.1,.41-.15,.13-.05,.24-.1,.34-.16,.2-.1,.35-.2,.45-.27,.1-.07,.15-.11,.15-.11,0,0-.24,.1-.66,.2-.1,.03-.22,.05-.35,.07-.13,.02-.26,.05-.41,.06-.3,.04-.63,.04-.99,.04-.13,0-.27-.02-.41-.03,.02,0,.04,0,.05-.01,.2-.05,.38-.11,.56-.18,.18-.06,.34-.12,.49-.19,.16-.07,.3-.12,.42-.17,.13-.05,.26-.07,.38-.1,.12-.01,.23-.04,.33-.04,.41-.02,.65,.06,.65,.06,0,0-.05-.04-.15-.09-.1-.05-.26-.12-.48-.16-.11-.03-.23-.03-.36-.05-.13,0-.28,0-.43,.02-.16,.03-.32,.05-.48,.09-.16,.03-.33,.08-.5,.1-.17,.03-.35,.06-.54,.08-.09,.01-.19,.02-.28,.03-.1,0-.19,0-.29,.01-.1,0-.2,.01-.3,.01-.1,0-.2-.01-.3-.02-.2,0-.41-.03-.62-.06-.21-.02-.41-.08-.62-.13-.21-.04-.41-.14-.61-.21-.21-.06-.4-.18-.6-.29-.1-.06-.2-.1-.29-.17l-.27-.2-.28-.2c-.09-.06-.17-.15-.25-.23-.16-.16-.34-.3-.49-.48-.15-.18-.3-.35-.45-.52-.16-.16-.27-.37-.4-.55-.13-.19-.25-.37-.38-.55-.11-.19-.22-.37-.32-.56-.11-.18-.21-.36-.31-.53-.09-.18-.17-.35-.26-.52-.08-.17-.16-.33-.24-.48-.08-.15-.16-.29-.21-.43-.12-.28-.23-.52-.32-.72-.18-.4-.3-.63-.3-.63,0,0,.04,.25,.13,.69,.04,.22,.09,.49,.16,.79,.06,.31,.18,.64,.3,1.01,.06,.18,.12,.38,.19,.57,.08,.19,.17,.39,.26,.59,.09,.2,.18,.41,.28,.62,.11,.21,.24,.41,.36,.62,.03,.05,.06,.1,.09,.15-.13,0-.31,0-.56,0-.47,.02-1.15,.07-1.95,.27-.4,.1-.83,.22-1.27,.41-.44,.19-.9,.42-1.35,.74-.44,.32-.88,.7-1.22,1.2l-.13,.19c-.06,.08-.08,.12-.12,.19-.07,.12-.16,.28-.22,.42-.13,.28-.23,.58-.3,.88-.14,.6-.18,1.22-.15,1.8,.02,.59,.13,1.16,.26,1.69,.13,.54,.32,1.03,.53,1.49,.21,.46,.47,.85,.71,1.2,.08,.11,.15,.22,.23,.32-.19,.24-.39,.49-.57,.77-.11,.17-.21,.34-.31,.52l-.07,.14-.06,.13c-.04,.09-.08,.2-.12,.3-.07,.2-.12,.43-.11,.68,.01,.25,.11,.51,.24,.69,.28,.36,.58,.53,.84,.73,.26,.19,.49,.38,.67,.6,.05,.05,.09,.11,.13,.17l.06,.08,.06,.1c.06,.11,.11,.23,.15,.35,.15,.5,.05,1.04-.1,1.47-.15,.44-.35,.81-.52,1.09-.18,.29-.33,.51-.44,.65-.11,.14-.17,.22-.17,.22,0,0,.07-.07,.2-.19,.13-.13,.32-.32,.53-.59,.21-.27,.46-.62,.67-1.07,.2-.45,.38-1.03,.26-1.7-.03-.16-.09-.33-.17-.49l-.05-.1c-.03-.05-.05-.08-.07-.12-.04-.07-.09-.14-.14-.21-.2-.28-.46-.52-.71-.74-.25-.22-.53-.43-.66-.64-.07-.11-.09-.2-.09-.32,0-.12,.04-.25,.09-.4,.03-.08,.06-.14,.09-.21l.06-.12,.06-.11c.09-.15,.18-.29,.29-.43,.14-.19,.29-.37,.45-.56,.17,.24,.31,.45,.42,.64,.12,.21,.2,.38,.23,.51,.03,.13,.03,.2,.03,.2,0,0,.02-.07,.02-.21,0-.14-.03-.34-.11-.58-.08-.24-.2-.53-.35-.84,0,0,.01-.01,.02-.02,.13-.16,.26-.34,.37-.55,.11-.21,.19-.48,.21-.74,.03-.53-.12-.98-.29-1.37-.04-.1-.09-.2-.14-.29l-.14-.27c-.08-.16-.16-.32-.23-.48-.13-.33-.22-.66-.25-.99-.06-.66,.14-1.3,.49-1.85,.35-.55,.84-1.01,1.33-1.39,.51-.38,.99-.72,1.48-.96,.97-.5,1.86-.74,2.5-.84,.2-.04,.37-.06,.52-.07,.09,.09,.19,.18,.28,.27,.09,.09,.18,.18,.28,.26-.06,.05-.14,.11-.25,.2-.22,.18-.55,.46-.92,.85-.38,.39-.82,.89-1.26,1.52-.44,.63-.91,1.37-1.31,2.24-.4,.87-.77,1.86-.97,2.98-.1,.56-.15,1.14-.14,1.75,0,.3,.03,.61,.08,.92,.04,.31,.13,.63,.21,.9,.31,1.15,.67,2.32,.89,3.5,.12,.59,.18,1.19,.17,1.77-.01,.28-.04,.61-.07,.92-.03,.31-.06,.62-.11,.88-.06,.27-.14,.48-.29,.69-.14,.21-.33,.41-.55,.61l-.09,.09-.1,.11c-.06,.07-.13,.15-.19,.25-.06,.1-.12,.21-.16,.36-.04,.15-.04,.35,.03,.54,.08,.18,.2,.31,.32,.38,.12,.08,.23,.12,.33,.15,.21,.06,.4,.06,.58,.05h.11s.08-.02,.1-.02c.04,0,.08,0,.13,0,.06,0,.08,.02,.09,.03,0,.01,.01,.04,0,.11,0,.04-.02,.09-.03,.15l-.07,.21s-.03,.1-.04,.16c-.01,.07-.02,.13-.02,.19,0,.12,0,.25,.04,.37,.07,.25,.23,.47,.42,.6,.18,.13,.38,.2,.57,.23,.09,.01,.19,.02,.28,.02,.05,0,.09,0,.14,0h.09s.05,0,.05,0c.02,0,.01,0,.02,0,.01,0,.02,0,.04,0,.03,0,.06,.01,.08,.03,.04,.02,.06,.04,.08,.1,.05,.11,.01,.34-.07,.54-.03,.08-.02,.05-.06,.17-.02,.08-.04,.19,0,.34,.06,.17,.2,.27,.29,.31,.09,.03,.16,.04,.21,.04,.21,0,.34-.03,.48-.05,.27-.05,.51-.11,.71-.11,.1,0,.16,.03,.15,.02h0s0,0,0,0h0s0,.01,0,.02c.01,.02,.02,.07,.02,.12,.02,.21,0,.48,.01,.75,.02,.27,.02,.59,.24,.91,.11,.16,.29,.26,.45,.29,.16,.04,.3,.03,.43,.01,.13-.02,.25-.05,.37-.09,.1-.04,.21-.07,.31-.11,.21-.09,.42-.17,.61-.26,.38-.18,.73-.37,1.06-.56,.65-.38,1.19-.74,1.62-1.07,.21-.16,.4-.31,.57-.44,.16-.14,.29-.25,.4-.35,.22-.19,.33-.29,.33-.29,0,0-.13,.09-.36,.25-.12,.08-.26,.18-.44,.29Z"/>
  <path class="cls-1" d="M164.84,7.39c.14,.19,.38,.39,.7,.51,.31,.12,.69,.17,1.09,.15,.4-.02,.82-.09,1.26-.23,.22-.07,.44-.14,.65-.22,.11-.04,.21-.08,.32-.12,.13-.05,.21-.07,.32-.11,.1-.04,.2-.07,.31-.11,.1-.02,.21-.04,.32-.06,.21-.06,.42-.03,.63-.05,.42,.04,.84,.13,1.22,.36,.38,.22,.74,.51,1.05,.87,.3,.36,.6,.73,.83,1.13,.24,.4,.46,.8,.64,1.19,.1,.19,.18,.4,.27,.59,.1,.2,.19,.39,.28,.57,.2,.35,.4,.67,.6,.92,.09,.13,.2,.24,.29,.35,.09,.1,.18,.19,.27,.27,.16,.16,.31,.26,.41,.34,.1,.07,.16,.1,.16,.1,0,0-.18-.19-.43-.56-.06-.09-.13-.2-.2-.31-.07-.12-.15-.24-.21-.38-.15-.27-.28-.6-.42-.95-.06-.18-.12-.37-.18-.56-.07-.21-.13-.41-.21-.63-.16-.44-.34-.9-.58-1.35-.23-.45-.52-.91-.87-1.32-.34-.42-.78-.8-1.26-1.09-.49-.3-1.07-.43-1.63-.45-.28,.02-.56,.02-.82,.1-.13,.03-.26,.07-.39,.1-.12,.05-.24,.1-.36,.15-.24,.1-.44,.19-.64,.3-.21,.11-.4,.19-.58,.27-.38,.16-.75,.28-1.09,.36-.34,.07-.66,.09-.94,.04-.27-.04-.5-.15-.66-.29-.16-.13-.27-.28-.33-.38-.06-.1-.09-.16-.09-.16,0,0,0,.07,.04,.19,.04,.12,.1,.3,.25,.49Z"/>
  <path class="cls-1" d="M179.56,1.37c0,.35,.06,.75,.2,1.14,.15,.39,.34,.8,.6,1.19,.13,.2,.26,.4,.4,.59,.07,.09,.14,.19,.21,.28,.08,.11,.13,.19,.2,.28,.06,.09,.13,.18,.19,.27,.05,.1,.1,.2,.15,.3,.12,.19,.16,.41,.24,.62,.09,.43,.15,.88,.05,1.34-.08,.45-.23,.9-.46,1.32-.23,.41-.47,.82-.76,1.19-.28,.36-.58,.71-.87,1.02-.14,.15-.31,.3-.44,.45-.15,.16-.29,.31-.43,.46-.26,.31-.47,.61-.64,.89-.09,.14-.16,.27-.22,.4-.06,.12-.12,.24-.16,.35-.09,.21-.14,.39-.18,.51-.03,.12-.04,.19-.04,.19,0,0,.11-.24,.37-.61,.06-.09,.14-.19,.22-.29,.09-.1,.17-.22,.28-.33,.2-.23,.45-.46,.72-.72,.14-.12,.29-.23,.45-.36,.17-.13,.33-.25,.51-.41,.35-.29,.7-.62,1.03-1,.33-.37,.66-.8,.92-1.28,.27-.48,.47-1.03,.59-1.61,.11-.59,.05-1.21-.1-1.78-.1-.27-.19-.56-.34-.79-.07-.12-.14-.24-.21-.36-.08-.1-.17-.21-.25-.31-.17-.21-.31-.38-.47-.55-.16-.17-.3-.34-.43-.5-.26-.33-.49-.66-.66-.98-.17-.32-.28-.64-.33-.93-.05-.29-.02-.55,.05-.76,.07-.2,.17-.35,.24-.45,.07-.09,.12-.14,.12-.14,0,0-.06,.03-.16,.1-.09,.08-.24,.19-.37,.4-.13,.21-.23,.51-.24,.86Z"/>
  <path class="cls-1" d="M174.46,9.21c.06,.25,.11,.49,.21,.71,.04,.11,.08,.22,.13,.33,.04,.11,.1,.21,.15,.31,.05,.1,.1,.2,.15,.3,.06,.09,.11,.19,.16,.28,.1,.18,.22,.35,.33,.51,.11,.16,.22,.31,.33,.44,.11,.13,.2,.26,.29,.37,.09,.11,.14,.24,.21,.34,.05,.12,.11,.22,.14,.32,.14,.4,.14,.67,.14,.67,0,0,.02-.06,.03-.18,.01-.12,.03-.3,0-.53,0-.12-.04-.24-.07-.38-.04-.13-.09-.28-.16-.43-.07-.15-.15-.3-.23-.45-.08-.15-.17-.31-.25-.47-.08-.16-.16-.33-.23-.51-.04-.09-.08-.18-.12-.27-.03-.09-.07-.19-.1-.29-.03-.1-.07-.19-.1-.3-.03-.1-.05-.2-.08-.31-.06-.21-.1-.42-.14-.64-.05-.22-.06-.44-.07-.67-.03-.23,0-.45,0-.68,0-.23,.04-.46,.07-.69,.02-.11,.03-.23,.06-.34l.1-.34,.09-.34c.03-.11,.09-.22,.13-.33,.1-.21,.16-.44,.27-.64,.11-.2,.22-.41,.33-.61,.1-.21,.25-.39,.37-.57,.13-.19,.25-.37,.37-.55,.14-.17,.27-.34,.4-.5,.13-.16,.26-.32,.38-.47,.13-.14,.26-.28,.39-.42,.12-.13,.24-.27,.36-.39,.11-.13,.21-.25,.33-.35,.22-.21,.4-.39,.55-.55,.3-.31,.48-.49,.48-.49,0,0-.21,.12-.58,.34-.18,.11-.41,.25-.66,.41-.26,.16-.52,.38-.81,.61-.15,.12-.3,.24-.46,.36-.15,.14-.3,.29-.45,.44-.15,.15-.31,.31-.48,.47-.15,.17-.29,.37-.44,.55-.31,.37-.57,.81-.83,1.26-.13,.23-.22,.48-.33,.72-.05,.12-.11,.24-.15,.37l-.11,.39-.1,.39c-.03,.13-.04,.27-.06,.4-.04,.27-.08,.54-.07,.81,0,.27-.01,.54,.04,.8,.03,.26,.06,.52,.13,.76Z"/>
  <path class="cls-1" d="M191.03,15.75c-.09-.09-.22-.22-.44-.31-.21-.1-.51-.16-.84-.11-.33,.05-.69,.18-1.03,.4s-.69,.48-1.01,.82c-.17,.17-.34,.34-.48,.51-.08,.09-.15,.18-.23,.27-.09,.11-.15,.17-.23,.25-.07,.08-.15,.16-.22,.25-.08,.07-.17,.13-.26,.2-.16,.15-.36,.24-.54,.35-.39,.17-.8,.3-1.24,.27-.43-.01-.88-.09-1.31-.26-.42-.17-.85-.35-1.23-.6-.39-.24-.76-.48-1.09-.74-.17-.12-.33-.27-.49-.39-.17-.13-.34-.25-.5-.37-.33-.22-.64-.4-.94-.52-.14-.07-.28-.12-.41-.16-.13-.05-.25-.08-.36-.11-.21-.06-.39-.08-.51-.1-.12-.01-.18-.01-.18-.01,0,0,.24,.08,.63,.29,.1,.05,.2,.11,.31,.18,.11,.07,.23,.14,.35,.23,.25,.17,.51,.4,.79,.64,.13,.13,.27,.27,.41,.41,.12,.13,.24,.25,.38,.38-.07-.05-.15-.1-.22-.15-.09-.05-.18-.1-.27-.16-.18-.1-.35-.19-.53-.27-.17-.08-.33-.15-.49-.21-.16-.06-.3-.12-.42-.17-.13-.05-.24-.13-.35-.19-.1-.07-.2-.13-.27-.21-.31-.28-.44-.5-.44-.5,0,0,.01,.06,.06,.18,.04,.11,.12,.28,.25,.46,.06,.1,.15,.18,.24,.29,.1,.09,.21,.2,.34,.29,.13,.09,.27,.19,.41,.27,.14,.09,.29,.18,.44,.28,.15,.1,.3,.2,.45,.32,.08,.06,.15,.12,.23,.18,.07,.06,.15,.13,.22,.2,.08,.07,.15,.13,.23,.2,.07,.07,.14,.15,.22,.23,.15,.15,.29,.31,.42,.48,.15,.16,.26,.35,.38,.54,.13,.18,.22,.39,.32,.59,.11,.2,.18,.42,.26,.64,.04,.11,.08,.22,.11,.33l.07,.34,.08,.34c.03,.11,.03,.23,.04,.35,.02,.24,.06,.47,.06,.7,0,.24,0,.47,0,.7,.02,.23-.03,.46-.05,.69-.02,.23-.04,.45-.07,.67-.04,.22-.08,.43-.11,.64-.04,.21-.07,.41-.11,.61-.05,.2-.09,.38-.14,.57-.04,.18-.09,.36-.13,.52-.04,.17-.07,.33-.12,.47-.09,.29-.16,.55-.22,.76-.12,.43-.18,.68-.18,.68,0,0,.13-.21,.35-.6,.11-.19,.24-.43,.38-.7,.15-.27,.27-.6,.42-.96,.07-.18,.15-.36,.23-.56,.07-.2,.12-.41,.18-.62,.06-.21,.13-.44,.19-.66,.05-.23,.08-.47,.13-.71,.1-.48,.12-1,.14-1.53,0-.26-.03-.53-.05-.8-.02-.13-.02-.27-.05-.4l-.09-.4-.09-.4c-.04-.13-.09-.26-.14-.38-.09-.25-.18-.51-.32-.74-.12-.24-.24-.47-.41-.67-.15-.21-.3-.42-.47-.59-.03-.03-.05-.05-.08-.08,.05,.04,.1,.08,.16,.11,.4,.29,.86,.55,1.35,.75,.49,.21,1.04,.33,1.6,.35,.57,.02,1.14-.14,1.64-.4,.24-.15,.49-.29,.68-.49,.1-.09,.2-.19,.3-.28,.08-.1,.17-.21,.25-.31,.17-.21,.3-.38,.44-.58,.13-.2,.27-.37,.4-.53,.26-.33,.54-.62,.81-.85,.27-.23,.55-.4,.81-.5,.26-.09,.51-.11,.71-.07,.2,.04,.36,.11,.46,.17,.1,.06,.15,.1,.15,.1,0,0-.04-.06-.12-.15Z"/>
  <path class="cls-1" d="M181.59,11.3c-.22,.1-.44,.2-.63,.34-.1,.06-.19,.12-.29,.19-.09,.06-.18,.14-.27,.2-.09,.07-.17,.13-.26,.2-.08,.07-.16,.14-.23,.21-.15,.14-.29,.28-.42,.43-.13,.14-.25,.28-.35,.41-.11,.14-.21,.25-.3,.36-.09,.11-.2,.19-.29,.28-.1,.07-.19,.15-.28,.2-.35,.22-.6,.26-.6,.26,0,0,.06,.01,.18,0,.11,0,.29-.02,.5-.09,.11-.03,.22-.08,.34-.13,.12-.07,.25-.14,.37-.23,.13-.1,.26-.2,.38-.31,.13-.11,.26-.23,.4-.34,.14-.11,.28-.22,.44-.33,.08-.05,.16-.11,.24-.17,.08-.05,.17-.1,.25-.15,.09-.05,.17-.11,.26-.16,.09-.04,.18-.09,.28-.13,.18-.1,.38-.17,.57-.25,.19-.09,.4-.13,.61-.19,.21-.07,.42-.08,.64-.11,.21-.05,.43-.03,.66-.04,.11,0,.22,0,.33,0l.33,.05,.33,.04c.11,.01,.22,.05,.33,.08,.21,.07,.44,.1,.65,.18,.21,.09,.42,.17,.63,.24,.21,.07,.4,.19,.6,.29,.19,.1,.39,.2,.57,.3,.18,.11,.36,.23,.53,.33,.17,.11,.34,.22,.5,.32,.16,.12,.31,.23,.45,.33,.15,.11,.29,.21,.42,.31,.14,.1,.27,.18,.38,.28,.23,.19,.43,.35,.6,.49,.34,.27,.54,.41,.54,.41,0,0-.14-.2-.41-.55-.14-.17-.3-.39-.49-.62-.19-.24-.44-.48-.7-.75-.13-.13-.27-.27-.42-.42-.15-.13-.32-.26-.49-.4-.17-.14-.34-.28-.52-.42-.19-.13-.39-.25-.59-.37-.39-.27-.85-.46-1.31-.66-.23-.1-.48-.15-.73-.23-.12-.03-.24-.08-.37-.09l-.38-.05-.38-.04c-.13,0-.26,0-.39,0-.26,0-.52,0-.77,.06-.25,.04-.5,.08-.74,.17-.24,.08-.47,.15-.69,.26Z"/>
  <path class="cls-1" d="M180,27.08c-.31-.26-.67-.51-1.08-.72-.2-.11-.42-.21-.62-.3-.1-.05-.21-.09-.32-.13-.13-.05-.2-.09-.31-.14-.1-.05-.2-.09-.3-.14-.09-.06-.18-.12-.27-.18-.19-.11-.33-.27-.5-.41-.28-.33-.54-.69-.67-1.13-.14-.43-.23-.9-.22-1.39,0-.48,.02-.96,.1-1.43,.08-.46,.17-.92,.28-1.34,.05-.21,.12-.42,.17-.62,.05-.21,.1-.42,.15-.62,.08-.4,.13-.77,.14-1.11,.01-.16,.01-.32,0-.46,0-.14-.01-.27-.03-.39-.02-.23-.06-.42-.09-.54-.03-.12-.05-.18-.05-.18,0,0,.01,.27-.04,.72,0,.11-.03,.24-.05,.37-.03,.13-.04,.28-.09,.43-.07,.31-.18,.64-.29,1-.07,.18-.15,.36-.22,.55-.02,.05-.04,.09-.06,.14,.01-.07,.02-.15,.03-.22,.03-.21,.05-.42,.06-.61,.02-.2,.02-.38,.02-.56,0-.18,0-.34,.01-.48,0-.15,.04-.28,.05-.41,.03-.12,.05-.24,.09-.34,.14-.41,.3-.61,.3-.61,0,0-.05,.03-.14,.12-.08,.08-.21,.21-.33,.4-.07,.09-.12,.21-.18,.33-.05,.13-.11,.27-.15,.43-.04,.16-.08,.33-.11,.5-.03,.17-.06,.35-.1,.53-.04,.18-.08,.36-.14,.55-.03,.09-.05,.19-.08,.29-.03,.09-.07,.19-.1,.29-.04,.1-.07,.2-.11,.29-.04,.1-.09,.19-.13,.29-.08,.2-.18,.39-.29,.58-.1,.2-.23,.37-.36,.55-.12,.19-.28,.35-.42,.52-.14,.18-.31,.32-.48,.47-.09,.07-.17,.15-.26,.22l-.28,.19-.28,.19c-.09,.07-.2,.11-.3,.16-.2,.09-.4,.22-.61,.3-.21,.08-.42,.15-.63,.23-.2,.09-.42,.12-.63,.18-.21,.05-.42,.11-.62,.16-.21,.03-.41,.07-.61,.1-.2,.03-.39,.06-.58,.1-.19,.02-.37,.03-.55,.05-.18,.02-.35,.03-.51,.05-.16,.02-.32,.04-.46,.04-.29,0-.55,.02-.76,.03-.42,.02-.67,.05-.67,.05,0,0,.23,.06,.65,.15,.21,.04,.46,.1,.76,.15,.29,.06,.63,.07,.99,.1,.18,.01,.37,.03,.57,.04,.2,0,.4-.02,.62-.02,.21-.01,.43-.02,.65-.03,.22-.02,.45-.07,.68-.11,.46-.06,.93-.22,1.41-.37,.24-.08,.46-.21,.7-.32,.11-.06,.24-.11,.34-.18l.33-.22,.32-.22c.1-.08,.2-.18,.3-.26,.2-.18,.39-.35,.55-.56,.17-.2,.34-.4,.47-.63,.12-.19,.23-.37,.32-.57-.11,.5-.19,1.04-.2,1.59-.01,.56,.07,1.14,.24,1.71,.18,.57,.52,1.08,.92,1.49,.22,.18,.42,.38,.67,.5,.12,.07,.23,.13,.35,.2,.12,.05,.24,.09,.36,.14,.25,.1,.44,.17,.67,.23,.22,.06,.42,.14,.61,.21,.38,.15,.73,.32,1.04,.51,.3,.19,.55,.41,.72,.63,.18,.23,.28,.47,.31,.68,.03,.21,.02,.39,0,.51-.02,.12-.04,.19-.04,.19,0,0,.04-.05,.09-.17,.05-.12,.12-.29,.13-.54,.02-.25-.04-.56-.2-.87-.16-.31-.4-.62-.71-.88Z"/>
</svg>